<mxfile host="app.diagrams.net" agent="Mozilla/5.0 (X11; Linux x86_64; rv:131.0) Gecko/20100101 Firefox/131.0" version="24.8.3">
  <diagram name="Страница — 1" id="t_NeTN3eoeEVEzWmpHWr">
    <mxGraphModel dx="2987" dy="2052" grid="1" gridSize="10" guides="1" tooltips="1" connect="1" arrows="1" fold="1" page="1" pageScale="1" pageWidth="827" pageHeight="1169" math="0" shadow="0">
      <root>
        <mxCell id="0" />
        <mxCell id="1" parent="0" />
        <mxCell id="rBZj6M4iUvi_iHVE-4-I-1" value="Administrátor" style="shape=umlActor;verticalLabelPosition=bottom;verticalAlign=top;html=1;" vertex="1" parent="1">
          <mxGeometry x="110" y="80" width="30" height="60" as="geometry" />
        </mxCell>
        <mxCell id="rBZj6M4iUvi_iHVE-4-I-2" value="Manažer" style="shape=umlActor;verticalLabelPosition=bottom;verticalAlign=top;html=1;" vertex="1" parent="1">
          <mxGeometry x="110" y="570" width="30" height="60" as="geometry" />
        </mxCell>
        <mxCell id="rBZj6M4iUvi_iHVE-4-I-3" value="Uživatel" style="shape=umlActor;verticalLabelPosition=bottom;verticalAlign=top;html=1;" vertex="1" parent="1">
          <mxGeometry x="100" y="960" width="30" height="60" as="geometry" />
        </mxCell>
        <mxCell id="rBZj6M4iUvi_iHVE-4-I-12" value="Registrace a správa zaměstnanců" style="ellipse;whiteSpace=wrap;html=1;" vertex="1" parent="1">
          <mxGeometry x="150" y="-130" width="140" height="60" as="geometry" />
        </mxCell>
        <mxCell id="rBZj6M4iUvi_iHVE-4-I-13" value="Správa inventáře kol" style="ellipse;whiteSpace=wrap;html=1;" vertex="1" parent="1">
          <mxGeometry x="310" y="-100" width="140" height="70" as="geometry" />
        </mxCell>
        <mxCell id="rBZj6M4iUvi_iHVE-4-I-14" value="Vytváření a správa servisních požadavků" style="ellipse;whiteSpace=wrap;html=1;" vertex="1" parent="1">
          <mxGeometry x="380" y="-20" width="140" height="70" as="geometry" />
        </mxCell>
        <mxCell id="rBZj6M4iUvi_iHVE-4-I-15" value="Reporty a analytika" style="ellipse;whiteSpace=wrap;html=1;" vertex="1" parent="1">
          <mxGeometry x="414" y="80" width="140" height="70" as="geometry" />
        </mxCell>
        <mxCell id="rBZj6M4iUvi_iHVE-4-I-16" value="Správa přístupových práv" style="ellipse;whiteSpace=wrap;html=1;" vertex="1" parent="1">
          <mxGeometry x="330" y="230" width="140" height="70" as="geometry" />
        </mxCell>
        <mxCell id="rBZj6M4iUvi_iHVE-4-I-17" value="Správa platebního systému" style="ellipse;whiteSpace=wrap;html=1;" vertex="1" parent="1">
          <mxGeometry x="150" y="260" width="140" height="70" as="geometry" />
        </mxCell>
        <mxCell id="rBZj6M4iUvi_iHVE-4-I-18" value="Registrace" style="ellipse;whiteSpace=wrap;html=1;" vertex="1" parent="1">
          <mxGeometry x="-330" y="585" width="140" height="70" as="geometry" />
        </mxCell>
        <mxCell id="rBZj6M4iUvi_iHVE-4-I-23" value="" style="endArrow=open;endFill=1;endSize=12;html=1;rounded=0;entryX=0.5;entryY=1;entryDx=0;entryDy=0;exitX=1;exitY=0.3333333333333333;exitDx=0;exitDy=0;exitPerimeter=0;" edge="1" parent="1" source="rBZj6M4iUvi_iHVE-4-I-1" target="rBZj6M4iUvi_iHVE-4-I-12">
          <mxGeometry width="160" relative="1" as="geometry">
            <mxPoint x="280" y="120" as="sourcePoint" />
            <mxPoint x="440" y="120" as="targetPoint" />
          </mxGeometry>
        </mxCell>
        <mxCell id="rBZj6M4iUvi_iHVE-4-I-24" value="" style="endArrow=open;endFill=1;endSize=12;html=1;rounded=0;" edge="1" parent="1" target="rBZj6M4iUvi_iHVE-4-I-13">
          <mxGeometry width="160" relative="1" as="geometry">
            <mxPoint x="140" y="100" as="sourcePoint" />
            <mxPoint x="230" y="-60" as="targetPoint" />
          </mxGeometry>
        </mxCell>
        <mxCell id="rBZj6M4iUvi_iHVE-4-I-25" value="" style="endArrow=open;endFill=1;endSize=12;html=1;rounded=0;entryX=0;entryY=0.5;entryDx=0;entryDy=0;" edge="1" parent="1" target="rBZj6M4iUvi_iHVE-4-I-14">
          <mxGeometry width="160" relative="1" as="geometry">
            <mxPoint x="140" y="100" as="sourcePoint" />
            <mxPoint x="240" y="-50" as="targetPoint" />
          </mxGeometry>
        </mxCell>
        <mxCell id="rBZj6M4iUvi_iHVE-4-I-26" value="" style="endArrow=open;endFill=1;endSize=12;html=1;rounded=0;" edge="1" parent="1" target="rBZj6M4iUvi_iHVE-4-I-15">
          <mxGeometry width="160" relative="1" as="geometry">
            <mxPoint x="140" y="100" as="sourcePoint" />
            <mxPoint x="250" y="-40" as="targetPoint" />
          </mxGeometry>
        </mxCell>
        <mxCell id="rBZj6M4iUvi_iHVE-4-I-27" value="" style="endArrow=open;endFill=1;endSize=12;html=1;rounded=0;" edge="1" parent="1" target="rBZj6M4iUvi_iHVE-4-I-32">
          <mxGeometry width="160" relative="1" as="geometry">
            <mxPoint x="90" y="150" as="sourcePoint" />
            <mxPoint x="-230" y="430" as="targetPoint" />
          </mxGeometry>
        </mxCell>
        <mxCell id="rBZj6M4iUvi_iHVE-4-I-28" value="" style="endArrow=open;endFill=1;endSize=12;html=1;rounded=0;" edge="1" parent="1" target="rBZj6M4iUvi_iHVE-4-I-16">
          <mxGeometry width="160" relative="1" as="geometry">
            <mxPoint x="140" y="100" as="sourcePoint" />
            <mxPoint x="270" y="-20" as="targetPoint" />
          </mxGeometry>
        </mxCell>
        <mxCell id="rBZj6M4iUvi_iHVE-4-I-29" value="" style="endArrow=open;endFill=1;endSize=12;html=1;rounded=0;entryX=0.5;entryY=0;entryDx=0;entryDy=0;" edge="1" parent="1" target="rBZj6M4iUvi_iHVE-4-I-17">
          <mxGeometry width="160" relative="1" as="geometry">
            <mxPoint x="140" y="100" as="sourcePoint" />
            <mxPoint x="280" y="-10" as="targetPoint" />
          </mxGeometry>
        </mxCell>
        <mxCell id="rBZj6M4iUvi_iHVE-4-I-30" value="" style="endArrow=open;endFill=1;endSize=12;html=1;rounded=0;exitX=0;exitY=0.3333333333333333;exitDx=0;exitDy=0;exitPerimeter=0;" edge="1" parent="1" source="rBZj6M4iUvi_iHVE-4-I-2" target="rBZj6M4iUvi_iHVE-4-I-32">
          <mxGeometry width="160" relative="1" as="geometry">
            <mxPoint x="60" y="410" as="sourcePoint" />
            <mxPoint x="-140" y="495" as="targetPoint" />
          </mxGeometry>
        </mxCell>
        <mxCell id="rBZj6M4iUvi_iHVE-4-I-31" value="" style="endArrow=open;endFill=1;endSize=12;html=1;rounded=0;exitX=0;exitY=0.3333333333333333;exitDx=0;exitDy=0;exitPerimeter=0;entryX=0.956;entryY=0.712;entryDx=0;entryDy=0;entryPerimeter=0;" edge="1" parent="1" source="rBZj6M4iUvi_iHVE-4-I-3" target="rBZj6M4iUvi_iHVE-4-I-18">
          <mxGeometry width="160" relative="1" as="geometry">
            <mxPoint x="-170" y="650" as="sourcePoint" />
            <mxPoint x="-180" y="610" as="targetPoint" />
          </mxGeometry>
        </mxCell>
        <mxCell id="rBZj6M4iUvi_iHVE-4-I-32" value="Přihlášení" style="ellipse;whiteSpace=wrap;html=1;" vertex="1" parent="1">
          <mxGeometry x="-330" y="470" width="140" height="70" as="geometry" />
        </mxCell>
        <mxCell id="rBZj6M4iUvi_iHVE-4-I-33" value="" style="endArrow=open;endFill=1;endSize=12;html=1;rounded=0;" edge="1" parent="1" target="rBZj6M4iUvi_iHVE-4-I-32">
          <mxGeometry width="160" relative="1" as="geometry">
            <mxPoint x="100" y="980" as="sourcePoint" />
            <mxPoint x="-220" y="440" as="targetPoint" />
          </mxGeometry>
        </mxCell>
        <mxCell id="rBZj6M4iUvi_iHVE-4-I-34" value="Obsluha zákazníků" style="ellipse;whiteSpace=wrap;html=1;" vertex="1" parent="1">
          <mxGeometry x="230" y="390" width="140" height="70" as="geometry" />
        </mxCell>
        <mxCell id="rBZj6M4iUvi_iHVE-4-I-35" value="" style="endArrow=open;endFill=1;endSize=12;html=1;rounded=0;" edge="1" parent="1" target="rBZj6M4iUvi_iHVE-4-I-34">
          <mxGeometry width="160" relative="1" as="geometry">
            <mxPoint x="140" y="590" as="sourcePoint" />
            <mxPoint x="280" y="370" as="targetPoint" />
          </mxGeometry>
        </mxCell>
        <mxCell id="rBZj6M4iUvi_iHVE-4-I-36" value="Kontrola stavu kol" style="ellipse;whiteSpace=wrap;html=1;" vertex="1" parent="1">
          <mxGeometry x="344" y="450" width="140" height="70" as="geometry" />
        </mxCell>
        <mxCell id="rBZj6M4iUvi_iHVE-4-I-37" value="" style="endArrow=open;endFill=1;endSize=12;html=1;rounded=0;" edge="1" parent="1" target="rBZj6M4iUvi_iHVE-4-I-36">
          <mxGeometry width="160" relative="1" as="geometry">
            <mxPoint x="140" y="590" as="sourcePoint" />
            <mxPoint x="290" y="460" as="targetPoint" />
          </mxGeometry>
        </mxCell>
        <mxCell id="rBZj6M4iUvi_iHVE-4-I-38" value="Vytváření servisních požadavků" style="ellipse;whiteSpace=wrap;html=1;" vertex="1" parent="1">
          <mxGeometry x="380" y="530" width="140" height="70" as="geometry" />
        </mxCell>
        <mxCell id="rBZj6M4iUvi_iHVE-4-I-39" value="" style="endArrow=open;endFill=1;endSize=12;html=1;rounded=0;" edge="1" parent="1" target="rBZj6M4iUvi_iHVE-4-I-38">
          <mxGeometry width="160" relative="1" as="geometry">
            <mxPoint x="140" y="590" as="sourcePoint" />
            <mxPoint x="350" y="540" as="targetPoint" />
          </mxGeometry>
        </mxCell>
        <mxCell id="rBZj6M4iUvi_iHVE-4-I-40" value="Zpracování plateb za pronájem" style="ellipse;whiteSpace=wrap;html=1;" vertex="1" parent="1">
          <mxGeometry x="350" y="620" width="140" height="70" as="geometry" />
        </mxCell>
        <mxCell id="rBZj6M4iUvi_iHVE-4-I-41" value="" style="endArrow=open;endFill=1;endSize=12;html=1;rounded=0;" edge="1" parent="1" target="rBZj6M4iUvi_iHVE-4-I-40">
          <mxGeometry width="160" relative="1" as="geometry">
            <mxPoint x="140" y="590" as="sourcePoint" />
            <mxPoint x="360" y="630" as="targetPoint" />
          </mxGeometry>
        </mxCell>
        <mxCell id="rBZj6M4iUvi_iHVE-4-I-42" value="Přístup ke statistikám o pronájmech" style="ellipse;whiteSpace=wrap;html=1;" vertex="1" parent="1">
          <mxGeometry x="274" y="700" width="140" height="70" as="geometry" />
        </mxCell>
        <mxCell id="rBZj6M4iUvi_iHVE-4-I-43" value="" style="endArrow=open;endFill=1;endSize=12;html=1;rounded=0;exitX=1;exitY=0.3333333333333333;exitDx=0;exitDy=0;exitPerimeter=0;" edge="1" parent="1" target="rBZj6M4iUvi_iHVE-4-I-42" source="rBZj6M4iUvi_iHVE-4-I-2">
          <mxGeometry width="160" relative="1" as="geometry">
            <mxPoint x="110.00000000000023" y="650" as="sourcePoint" />
            <mxPoint x="340" y="700" as="targetPoint" />
          </mxGeometry>
        </mxCell>
        <mxCell id="rBZj6M4iUvi_iHVE-4-I-44" value="Zobrazení dostupných kol" style="ellipse;whiteSpace=wrap;html=1;" vertex="1" parent="1">
          <mxGeometry x="220" y="810" width="140" height="70" as="geometry" />
        </mxCell>
        <mxCell id="rBZj6M4iUvi_iHVE-4-I-45" value="" style="endArrow=open;endFill=1;endSize=12;html=1;rounded=0;" edge="1" parent="1" target="rBZj6M4iUvi_iHVE-4-I-44">
          <mxGeometry width="160" relative="1" as="geometry">
            <mxPoint x="130" y="980" as="sourcePoint" />
            <mxPoint x="415" y="840" as="targetPoint" />
          </mxGeometry>
        </mxCell>
        <mxCell id="rBZj6M4iUvi_iHVE-4-I-48" value="Filtrování a vyhledávání kol" style="ellipse;whiteSpace=wrap;html=1;" vertex="1" parent="1">
          <mxGeometry x="320" y="880" width="140" height="70" as="geometry" />
        </mxCell>
        <mxCell id="rBZj6M4iUvi_iHVE-4-I-49" value="" style="endArrow=open;endFill=1;endSize=12;html=1;rounded=0;" edge="1" parent="1" target="rBZj6M4iUvi_iHVE-4-I-48">
          <mxGeometry width="160" relative="1" as="geometry">
            <mxPoint x="130" y="980" as="sourcePoint" />
            <mxPoint x="435" y="860" as="targetPoint" />
          </mxGeometry>
        </mxCell>
        <mxCell id="rBZj6M4iUvi_iHVE-4-I-50" value="Zobrazeni historie pronájmu" style="ellipse;whiteSpace=wrap;html=1;" vertex="1" parent="1">
          <mxGeometry x="180" y="1120" width="140" height="70" as="geometry" />
        </mxCell>
        <mxCell id="rBZj6M4iUvi_iHVE-4-I-51" value="" style="endArrow=open;endFill=1;endSize=12;html=1;rounded=0;exitX=1;exitY=0.3333333333333333;exitDx=0;exitDy=0;exitPerimeter=0;" edge="1" parent="1" target="rBZj6M4iUvi_iHVE-4-I-50" source="rBZj6M4iUvi_iHVE-4-I-3">
          <mxGeometry width="160" relative="1" as="geometry">
            <mxPoint x="130" y="900" as="sourcePoint" />
            <mxPoint x="445" y="870" as="targetPoint" />
          </mxGeometry>
        </mxCell>
        <mxCell id="rBZj6M4iUvi_iHVE-4-I-52" value="Pronájem kola&lt;span style=&quot;white-space: pre;&quot;&gt;&#x9;&lt;/span&gt;" style="ellipse;whiteSpace=wrap;html=1;" vertex="1" parent="1">
          <mxGeometry x="350" y="970" width="140" height="70" as="geometry" />
        </mxCell>
        <mxCell id="rBZj6M4iUvi_iHVE-4-I-53" value="" style="endArrow=open;endFill=1;endSize=12;html=1;rounded=0;" edge="1" parent="1" target="rBZj6M4iUvi_iHVE-4-I-52">
          <mxGeometry width="160" relative="1" as="geometry">
            <mxPoint x="130" y="980" as="sourcePoint" />
            <mxPoint x="455" y="880" as="targetPoint" />
          </mxGeometry>
        </mxCell>
        <mxCell id="rBZj6M4iUvi_iHVE-4-I-54" value="Platba za pronájem" style="ellipse;whiteSpace=wrap;html=1;" vertex="1" parent="1">
          <mxGeometry x="290" y="1050" width="140" height="70" as="geometry" />
        </mxCell>
        <mxCell id="rBZj6M4iUvi_iHVE-4-I-55" value="" style="endArrow=open;endFill=1;endSize=12;html=1;rounded=0;exitX=1;exitY=0.3333333333333333;exitDx=0;exitDy=0;exitPerimeter=0;" edge="1" parent="1" target="rBZj6M4iUvi_iHVE-4-I-54" source="rBZj6M4iUvi_iHVE-4-I-3">
          <mxGeometry width="160" relative="1" as="geometry">
            <mxPoint x="150" y="920" as="sourcePoint" />
            <mxPoint x="465" y="890" as="targetPoint" />
          </mxGeometry>
        </mxCell>
        <mxCell id="rBZj6M4iUvi_iHVE-4-I-58" value="Zaměstnanec" style="shape=umlActor;verticalLabelPosition=bottom;verticalAlign=top;html=1;" vertex="1" parent="1">
          <mxGeometry x="-20" y="80" width="30" height="60" as="geometry" />
        </mxCell>
        <mxCell id="rBZj6M4iUvi_iHVE-4-I-63" value="" style="html=1;verticalAlign=bottom;endArrow=open;dashed=1;endSize=8;curved=0;rounded=0;exitX=1;exitY=0.3333333333333333;exitDx=0;exitDy=0;exitPerimeter=0;entryX=0;entryY=0.3333333333333333;entryDx=0;entryDy=0;entryPerimeter=0;" edge="1" parent="1" source="rBZj6M4iUvi_iHVE-4-I-58" target="rBZj6M4iUvi_iHVE-4-I-1">
          <mxGeometry relative="1" as="geometry">
            <mxPoint x="110" y="170" as="sourcePoint" />
            <mxPoint x="30" y="170" as="targetPoint" />
          </mxGeometry>
        </mxCell>
        <mxCell id="rBZj6M4iUvi_iHVE-4-I-64" value="" style="html=1;verticalAlign=bottom;endArrow=open;dashed=1;endSize=8;curved=0;rounded=0;entryX=0.375;entryY=-0.025;entryDx=0;entryDy=0;entryPerimeter=0;" edge="1" parent="1" target="rBZj6M4iUvi_iHVE-4-I-2">
          <mxGeometry relative="1" as="geometry">
            <mxPoint x="10" y="100" as="sourcePoint" />
            <mxPoint x="120" y="110" as="targetPoint" />
          </mxGeometry>
        </mxCell>
      </root>
    </mxGraphModel>
  </diagram>
</mxfile>
